<svg width="86" height="86" viewBox="0 0 86 86" fill="none" xmlns="http://www.w3.org/2000/svg">
<rect x="1" y="7" width="78" height="78" fill="white" stroke="black" stroke-width="2"/>
<rect x="4" y="4" width="78" height="78" fill="white" stroke="black" stroke-width="2"/>
<path d="M17.5 77.3785L12.5495 71.834L8.23345 67H17.5V77.3785ZM7 65V1H85V79H19.5V66V65H18.5H7Z" fill="white" stroke="black" stroke-width="2"/>
<path d="M15.8555 33.2207C15.9531 33.8457 16.2493 34.3665 16.7441 34.7832C17.2454 35.1934 17.916 35.3984 18.7559 35.3984C19.4134 35.3984 19.9831 35.2975 20.4648 35.0957C20.9531 34.8874 21.373 34.6139 21.7246 34.2754L22.7598 35.7012C22.1738 36.2871 21.5521 36.6875 20.8945 36.9023C20.2435 37.1172 19.5306 37.2246 18.7559 37.2246C18.0527 37.2246 17.3984 37.1074 16.793 36.873C16.1875 36.6387 15.6634 36.3132 15.2207 35.8965C14.778 35.4733 14.4297 34.972 14.1758 34.3926C13.9284 33.8132 13.8047 33.1686 13.8047 32.459C13.8047 31.7689 13.9186 31.1341 14.1465 30.5547C14.3809 29.9688 14.7064 29.4642 15.123 29.041C15.5462 28.6113 16.0508 28.2793 16.6367 28.0449C17.2227 27.804 17.8704 27.6836 18.5801 27.6836C19.3158 27.6836 19.9831 27.8105 20.582 28.0645C21.181 28.3118 21.6921 28.6732 22.1152 29.1484C22.5449 29.6237 22.8802 30.2064 23.1211 30.8965C23.362 31.5801 23.4824 32.3548 23.4824 33.2207H15.8555ZM21.1973 31.4434C21.0931 30.8574 20.7904 30.3887 20.2891 30.0371C19.7878 29.679 19.2181 29.5 18.5801 29.5C17.9421 29.5 17.3691 29.679 16.8613 30.0371C16.3535 30.3887 16.0475 30.8574 15.9434 31.4434H21.1973ZM34.6777 35.7012C34.0918 36.2871 33.4733 36.6875 32.8223 36.9023C32.1777 37.1172 31.4779 37.2246 30.7227 37.2246C29.9609 37.2246 29.2676 37.1107 28.6426 36.8828C28.0241 36.6549 27.4967 36.3359 27.0605 35.9258C26.6309 35.5091 26.2988 35.0078 26.0645 34.4219C25.8366 33.8359 25.7227 33.1816 25.7227 32.459C25.7227 31.7689 25.8366 31.1309 26.0645 30.5449C26.2988 29.9525 26.6113 29.4479 27.002 29.0312C27.3991 28.6081 27.8646 28.2793 28.3984 28.0449C28.9323 27.804 29.4987 27.6836 30.0977 27.6836C30.7227 27.6836 31.2663 27.8138 31.7285 28.0742C32.1908 28.3346 32.526 28.7155 32.7344 29.2168V27.8984H34.541V32.1367H32.7344C32.7344 31.3359 32.513 30.6979 32.0703 30.2227C31.6341 29.7409 31.0645 29.5 30.3613 29.5C30.0814 29.5 29.7852 29.5586 29.4727 29.6758C29.1667 29.7865 28.8835 29.9622 28.623 30.2031C28.3691 30.444 28.1576 30.75 27.9883 31.1211C27.819 31.4922 27.7344 31.9382 27.7344 32.459C27.7344 32.9668 27.8158 33.4062 27.9785 33.7773C28.1413 34.1419 28.3529 34.4447 28.6133 34.6855C28.8802 34.9199 29.1927 35.099 29.5508 35.2227C29.9154 35.3398 30.2897 35.3984 30.6738 35.3984C31.3314 35.3984 31.901 35.2975 32.3828 35.0957C32.8711 34.8874 33.291 34.6139 33.6426 34.2754L34.6777 35.7012ZM46.459 37H44.4375V31.3848C44.4375 30.6751 44.304 30.1836 44.0371 29.9102C43.7702 29.6367 43.3828 29.5 42.875 29.5C42.1263 29.5 41.5143 29.8027 41.0391 30.4082C40.5703 31.0137 40.3359 31.8503 40.3359 32.918V37H38.3145V24.2559H40.3359V30.1836C40.5378 29.3958 40.9121 28.7839 41.459 28.3477C42.0059 27.9049 42.6797 27.6836 43.4805 27.6836C44.4115 27.6836 45.1406 27.9863 45.668 28.5918C46.1953 29.1973 46.459 30.1283 46.459 31.3848V37ZM59.0898 32.459C59.0898 33.1686 58.9759 33.8132 58.748 34.3926C58.5267 34.972 58.2044 35.4733 57.7812 35.8965C57.3646 36.3132 56.8633 36.6387 56.2773 36.873C55.6914 37.1074 55.0371 37.2246 54.3145 37.2246C53.6048 37.2246 52.957 37.1074 52.3711 36.873C51.7852 36.6387 51.2806 36.3132 50.8574 35.8965C50.4408 35.4733 50.1185 34.972 49.8906 34.3926C49.6693 33.8132 49.5586 33.1686 49.5586 32.459C49.5586 31.7689 49.6693 31.1309 49.8906 30.5449C50.1185 29.9525 50.4408 29.4447 50.8574 29.0215C51.2806 28.5918 51.7852 28.263 52.3711 28.0352C52.957 27.8008 53.6048 27.6836 54.3145 27.6836C55.0371 27.6836 55.6914 27.8008 56.2773 28.0352C56.8633 28.263 57.3646 28.5918 57.7812 29.0215C58.2044 29.4447 58.5267 29.9525 58.748 30.5449C58.9759 31.1309 59.0898 31.7689 59.0898 32.459ZM57.0781 32.459C57.0781 32.0488 57.013 31.6615 56.8828 31.2969C56.7591 30.9258 56.5768 30.61 56.3359 30.3496C56.0951 30.0892 55.8021 29.8841 55.457 29.7344C55.1185 29.5781 54.7376 29.5 54.3145 29.5C53.8848 29.5 53.5007 29.5781 53.1621 29.7344C52.8236 29.8841 52.5371 30.0892 52.3027 30.3496C52.0684 30.61 51.8861 30.9258 51.7559 31.2969C51.6322 31.6615 51.5703 32.0488 51.5703 32.459C51.5703 32.8887 51.6322 33.2793 51.7559 33.6309C51.8861 33.9824 52.0684 34.2917 52.3027 34.5586C52.5371 34.8255 52.8236 35.0339 53.1621 35.1836C53.5007 35.3268 53.8848 35.3984 54.3145 35.3984C54.7376 35.3984 55.1185 35.3268 55.457 35.1836C55.8021 35.0339 56.0951 34.8255 56.3359 34.5586C56.5768 34.2917 56.7591 33.9824 56.8828 33.6309C57.013 33.2793 57.0781 32.8887 57.0781 32.459Z" fill="black"/>
<path d="M34.623 54H32.6016V48.3848C32.6016 47.6751 32.4681 47.1836 32.2012 46.9102C31.9342 46.6367 31.5469 46.5 31.0391 46.5C30.2904 46.5 29.6784 46.8027 29.2031 47.4082C28.7344 48.0137 28.5 48.8503 28.5 49.918V54H26.4785V44.8984H28.5V47.1836C28.7018 46.3958 29.0762 45.7839 29.623 45.3477C30.1699 44.9049 30.8438 44.6836 31.6445 44.6836C32.5755 44.6836 33.3047 44.9863 33.832 45.5918C34.3594 46.1973 34.623 47.1283 34.623 48.3848V54ZM47.2539 49.459C47.2539 50.1686 47.14 50.8132 46.9121 51.3926C46.6908 51.972 46.3685 52.4733 45.9453 52.8965C45.5286 53.3132 45.0273 53.6387 44.4414 53.873C43.8555 54.1074 43.2012 54.2246 42.4785 54.2246C41.7689 54.2246 41.1211 54.1074 40.5352 53.873C39.9492 53.6387 39.4447 53.3132 39.0215 52.8965C38.6048 52.4733 38.2826 51.972 38.0547 51.3926C37.8333 50.8132 37.7227 50.1686 37.7227 49.459C37.7227 48.7689 37.8333 48.1309 38.0547 47.5449C38.2826 46.9525 38.6048 46.4447 39.0215 46.0215C39.4447 45.5918 39.9492 45.263 40.5352 45.0352C41.1211 44.8008 41.7689 44.6836 42.4785 44.6836C43.2012 44.6836 43.8555 44.8008 44.4414 45.0352C45.0273 45.263 45.5286 45.5918 45.9453 46.0215C46.3685 46.4447 46.6908 46.9525 46.9121 47.5449C47.14 48.1309 47.2539 48.7689 47.2539 49.459ZM45.2422 49.459C45.2422 49.0488 45.1771 48.6615 45.0469 48.2969C44.9232 47.9258 44.7409 47.61 44.5 47.3496C44.2591 47.0892 43.9661 46.8841 43.6211 46.7344C43.2826 46.5781 42.9017 46.5 42.4785 46.5C42.0488 46.5 41.6647 46.5781 41.3262 46.7344C40.9876 46.8841 40.7012 47.0892 40.4668 47.3496C40.2324 47.61 40.0501 47.9258 39.9199 48.2969C39.7962 48.6615 39.7344 49.0488 39.7344 49.459C39.7344 49.8887 39.7962 50.2793 39.9199 50.6309C40.0501 50.9824 40.2324 51.2917 40.4668 51.5586C40.7012 51.8255 40.9876 52.0339 41.3262 52.1836C41.6647 52.3268 42.0488 52.3984 42.4785 52.3984C42.9017 52.3984 43.2826 52.3268 43.6211 52.1836C43.9661 52.0339 44.2591 51.8255 44.5 51.5586C44.7409 51.2917 44.9232 50.9824 45.0469 50.6309C45.1771 50.2793 45.2422 49.8887 45.2422 49.459ZM59.0352 51.0996C58.931 52.0566 58.5534 52.8184 57.9023 53.3848C57.2578 53.9447 56.4505 54.2246 55.4805 54.2246C54.9466 54.2246 54.4583 54.1367 54.0156 53.9609C53.5729 53.7852 53.1953 53.541 52.8828 53.2285C52.5703 52.916 52.3262 52.5417 52.1504 52.1055C51.9811 51.6628 51.8965 51.181 51.8965 50.6602V46.7246H49.8359V44.8984H51.8965V41.2559H53.918V44.8984H57.7363V46.7246H53.918V50.6602C53.918 51.2461 54.0612 51.6823 54.3477 51.9688C54.6341 52.2552 55.0117 52.3984 55.4805 52.3984C56.0534 52.3984 56.4798 52.2324 56.7598 51.9004C57.0397 51.5684 57.2057 51.168 57.2578 50.6992L59.0352 51.0996ZM63.6094 50.2207C63.707 50.8457 64.0033 51.3665 64.498 51.7832C64.9993 52.1934 65.6699 52.3984 66.5098 52.3984C67.1673 52.3984 67.737 52.2975 68.2188 52.0957C68.707 51.8874 69.127 51.6139 69.4785 51.2754L70.5137 52.7012C69.9277 53.2871 69.306 53.6875 68.6484 53.9023C67.9974 54.1172 67.2845 54.2246 66.5098 54.2246C65.8066 54.2246 65.1523 54.1074 64.5469 53.873C63.9414 53.6387 63.4173 53.3132 62.9746 52.8965C62.5319 52.4733 62.1836 51.972 61.9297 51.3926C61.6823 50.8132 61.5586 50.1686 61.5586 49.459C61.5586 48.7689 61.6725 48.1341 61.9004 47.5547C62.1348 46.9688 62.4603 46.4642 62.877 46.041C63.3001 45.6113 63.8047 45.2793 64.3906 45.0449C64.9766 44.804 65.6243 44.6836 66.334 44.6836C67.0697 44.6836 67.737 44.8105 68.3359 45.0645C68.9349 45.3118 69.446 45.6732 69.8691 46.1484C70.2988 46.6237 70.6341 47.2064 70.875 47.8965C71.1159 48.5801 71.2363 49.3548 71.2363 50.2207H63.6094ZM68.9512 48.4434C68.847 47.8574 68.5443 47.3887 68.043 47.0371C67.5417 46.679 66.972 46.5 66.334 46.5C65.696 46.5 65.123 46.679 64.6152 47.0371C64.1074 47.3887 63.8014 47.8574 63.6973 48.4434H68.9512Z" fill="black"/>
<path d="M64 35.5L64.3726 35.3013C67.191 33.7981 66.9658 29.6863 64 28.5V28.5" stroke="black" stroke-linecap="round"/>
<path d="M68 40V40C74.3782 37.1781 75.0024 28.3712 69.086 24.6779L68 24" stroke="black" stroke-opacity="0.62" stroke-linecap="round"/>
<path d="M66 38V38C70.7333 35.8485 71.1925 29.3043 66.806 26.5129L66 26" stroke="black" stroke-opacity="0.81" stroke-linecap="round"/>
</svg>
